<svg width="19" height="18" viewBox="0 0 19 18" fill="none" xmlns="http://www.w3.org/2000/svg">
<path d="M9.24709 3H3.99709C3.59926 3 3.21773 3.15804 2.93643 3.43934C2.65512 3.72064 2.49709 4.10218 2.49709 4.5V15C2.49709 15.3978 2.65512 15.7794 2.93643 16.0607C3.21773 16.342 3.59926 16.5 3.99709 16.5H14.4971C14.8949 16.5 15.2764 16.342 15.5577 16.0607C15.8391 15.7794 15.9971 15.3978 15.9971 15V9.75" stroke="#495057" stroke-linecap="round" stroke-linejoin="round"/>
<path d="M14.8721 1.87499C15.1705 1.57662 15.5751 1.409 15.9971 1.409C16.419 1.409 16.8237 1.57662 17.1221 1.87499C17.4205 2.17336 17.5881 2.57803 17.5881 2.99999C17.5881 3.42194 17.4205 3.82662 17.1221 4.12499L9.99709 11.25L6.99709 12L7.74709 8.99999L14.8721 1.87499Z" stroke="#495057" stroke-linecap="round" stroke-linejoin="round"/>
</svg>
